<svg xmlns="http://www.w3.org/2000/svg" version="1.1" xmlns:xlink="http://www.w3.org/1999/xlink" xmlns:svgjs="http://svgjs.dev/svgjs" width="1920" height="1080" preserveAspectRatio="none" viewBox="0 0 1920 1080">
    <g mask="url(&quot;#SvgjsMask1098&quot;)" fill="none">
        <rect width="1920" height="1080" x="0" y="0" fill="rgba(20, 20, 20, 1)"></rect>
        <g mask="url(&quot;#SvgjsMask1099&quot;)">
            <path d="M1275 525L1325 525L1375 525L1425 525L1475 525L1525 525L1575 525M475 575L525 625L575 625M1125 575L1175 525M825 575L875 525M1075 575L1125 525L1175 475M1025 575L1075 525L1125 475L1175 425M1475 475L1525 425M1325 475L1375 425M-25 525L25 525L75 525L125 525L175 525L225 575L275 575L325 575L375 625L425 625L475 575L525 575L575 575L625 575L675 575L725 575L775 575L825 575L875 575L925 575L975 575L1025 575L1075 575L1125 575L1175 575L1225 525L1275 525L1325 475L1375 475L1425 475L1475 475L1525 475" stroke="rgba(50, 50, 50, 1)" stroke-width="8.33"></path>
            <path d="M1512.5 475 a12.5 12.5 0 1 0 25 0 a12.5 12.5 0 1 0 -25 0zM1562.5 525 a12.5 12.5 0 1 0 25 0 a12.5 12.5 0 1 0 -25 0zM562.5 625 a12.5 12.5 0 1 0 25 0 a12.5 12.5 0 1 0 -25 0zM1162.5 525 a12.5 12.5 0 1 0 25 0 a12.5 12.5 0 1 0 -25 0zM862.5 525 a12.5 12.5 0 1 0 25 0 a12.5 12.5 0 1 0 -25 0zM1162.5 475 a12.5 12.5 0 1 0 25 0 a12.5 12.5 0 1 0 -25 0zM1162.5 425 a12.5 12.5 0 1 0 25 0 a12.5 12.5 0 1 0 -25 0zM1512.5 425 a12.5 12.5 0 1 0 25 0 a12.5 12.5 0 1 0 -25 0zM1362.5 425 a12.5 12.5 0 1 0 25 0 a12.5 12.5 0 1 0 -25 0z" fill="rgba(50, 50, 50, 1)"></path>
            <path d="M-25 575L25 575L75 575L125 575L175 575" stroke="rgba(50, 20, 20, 1)" stroke-width="8.33"></path>
            <path d="M162.5 575 a12.5 12.5 0 1 0 25 0 a12.5 12.5 0 1 0 -25 0z" fill="rgba(50, 20, 20, 1)"></path>
            <path d="M675 525L725 475L775 475L825 475M425 525L475 475L525 475M375 525L425 475M625 525L675 475M-25 475L25 475L75 475L125 475L175 475L225 475L275 525L325 525L375 525L425 525L475 525L525 525L575 525L625 525L675 525L725 525L775 525" stroke="rgba(50, 50, 50, 1)" stroke-width="8.33"></path>
            <path d="M762.5 525 a12.5 12.5 0 1 0 25 0 a12.5 12.5 0 1 0 -25 0zM812.5 475 a12.5 12.5 0 1 0 25 0 a12.5 12.5 0 1 0 -25 0zM512.5 475 a12.5 12.5 0 1 0 25 0 a12.5 12.5 0 1 0 -25 0zM412.5 475 a12.5 12.5 0 1 0 25 0 a12.5 12.5 0 1 0 -25 0zM662.5 475 a12.5 12.5 0 1 0 25 0 a12.5 12.5 0 1 0 -25 0z" fill="rgba(50, 50, 50, 1)"></path>
            <path d="M975 625L1025 675L1075 675L1125 675L1175 675L1225 675L1275 725L1325 725L1375 725L1425 725L1475 725M875 625L925 675L975 675L1025 725M675 625L725 675L775 725L825 725L875 725L925 725L975 725M575 675L625 675L675 675L725 725M1325 675L1375 625L1425 625L1475 625L1525 625L1575 625M825 625L875 675M775 625L825 675M-25 625L25 625L75 625L125 625L175 625L225 625L275 625L325 625L375 675L425 675L475 675L525 675L575 675L625 625L675 625L725 625L775 625L825 625L875 625L925 625L975 625L1025 625L1075 625L1125 625L1175 625L1225 625L1275 675L1325 675L1375 675L1425 675" stroke="rgba(50, 50, 50, 1)" stroke-width="8.33"></path>
            <path d="M1412.5 675 a12.5 12.5 0 1 0 25 0 a12.5 12.5 0 1 0 -25 0zM1462.5 725 a12.5 12.5 0 1 0 25 0 a12.5 12.5 0 1 0 -25 0zM1012.5 725 a12.5 12.5 0 1 0 25 0 a12.5 12.5 0 1 0 -25 0zM962.5 725 a12.5 12.5 0 1 0 25 0 a12.5 12.5 0 1 0 -25 0zM712.5 725 a12.5 12.5 0 1 0 25 0 a12.5 12.5 0 1 0 -25 0zM1562.5 625 a12.5 12.5 0 1 0 25 0 a12.5 12.5 0 1 0 -25 0zM862.5 675 a12.5 12.5 0 1 0 25 0 a12.5 12.5 0 1 0 -25 0zM812.5 675 a12.5 12.5 0 1 0 25 0 a12.5 12.5 0 1 0 -25 0z" fill="rgba(50, 50, 50, 1)"></path>
            <path d="M325 425L375 475M425 425L475 375L525 375L575 375M575 425L625 475M-25 425L25 425L75 425L125 425L175 425L225 425L275 425L325 425L375 425L425 425L475 425L525 425L575 425L625 425L675 425" stroke="rgba(50, 20, 20, 1)" stroke-width="8.33"></path>
            <path d="M662.5 425 a12.5 12.5 0 1 0 25 0 a12.5 12.5 0 1 0 -25 0zM362.5 475 a12.5 12.5 0 1 0 25 0 a12.5 12.5 0 1 0 -25 0zM562.5 375 a12.5 12.5 0 1 0 25 0 a12.5 12.5 0 1 0 -25 0zM612.5 475 a12.5 12.5 0 1 0 25 0 a12.5 12.5 0 1 0 -25 0z" fill="rgba(50, 20, 20, 1)"></path>
            <path d="M725 775L775 825L825 825L875 825M675 775L725 825M925 775L975 825L1025 875L1075 875L1125 875L1175 875L1225 875L1275 875L1325 875M1225 775L1275 825M425 725L475 775M575 775L625 725L675 725M1175 775L1225 725M1275 775L1325 775L1375 775L1425 775L1475 775L1525 775L1575 775L1625 775M-25 675L25 675L75 675L125 675L175 675L225 675L275 675L325 675L375 725L425 725L475 725L525 725L575 775L625 775L675 775L725 775L775 775L825 775L875 775L925 775L975 775L1025 775L1075 775L1125 775L1175 775L1225 775L1275 775L1325 825L1375 825L1425 825L1475 825L1525 825" stroke="rgba(50, 50, 50, 1)" stroke-width="8.33"></path>
            <path d="M1512.5 825 a12.5 12.5 0 1 0 25 0 a12.5 12.5 0 1 0 -25 0zM862.5 825 a12.5 12.5 0 1 0 25 0 a12.5 12.5 0 1 0 -25 0zM712.5 825 a12.5 12.5 0 1 0 25 0 a12.5 12.5 0 1 0 -25 0zM1312.5 875 a12.5 12.5 0 1 0 25 0 a12.5 12.5 0 1 0 -25 0zM1262.5 825 a12.5 12.5 0 1 0 25 0 a12.5 12.5 0 1 0 -25 0zM462.5 775 a12.5 12.5 0 1 0 25 0 a12.5 12.5 0 1 0 -25 0zM662.5 725 a12.5 12.5 0 1 0 25 0 a12.5 12.5 0 1 0 -25 0zM1212.5 725 a12.5 12.5 0 1 0 25 0 a12.5 12.5 0 1 0 -25 0zM1612.5 775 a12.5 12.5 0 1 0 25 0 a12.5 12.5 0 1 0 -25 0z" fill="rgba(50, 50, 50, 1)"></path>
            <path d="M-25 375L25 375L75 375L125 375L175 375L225 375" stroke="rgba(50, 50, 50, 1)" stroke-width="8.33"></path>
            <path d="M212.5 375 a12.5 12.5 0 1 0 25 0 a12.5 12.5 0 1 0 -25 0z" fill="rgba(50, 50, 50, 1)"></path>
            <path d="M1325 975L1375 925L1425 925L1475 925L1525 925L1575 925L1625 925M325 775L375 775L425 775L475 825L525 825M625 925L675 875L725 875M375 825L425 825M1225 975L1275 925L1325 925M875 925L925 925L975 925L1025 925L1075 925L1125 925L1175 925L1225 925M275 775L325 725M-25 725L25 725L75 725L125 725L175 725L225 775L275 775L325 775L375 825L425 875L475 875L525 875L575 875L625 925L675 925L725 925L775 925L825 925L875 925L925 975L975 975L1025 975L1075 975L1125 975L1175 975L1225 975L1275 975L1325 975L1375 975L1425 975L1475 975" stroke="rgba(50, 20, 20, 1)" stroke-width="8.33"></path>
            <path d="M1462.5 975 a12.5 12.5 0 1 0 25 0 a12.5 12.5 0 1 0 -25 0zM1612.5 925 a12.5 12.5 0 1 0 25 0 a12.5 12.5 0 1 0 -25 0zM512.5 825 a12.5 12.5 0 1 0 25 0 a12.5 12.5 0 1 0 -25 0zM712.5 875 a12.5 12.5 0 1 0 25 0 a12.5 12.5 0 1 0 -25 0zM412.5 825 a12.5 12.5 0 1 0 25 0 a12.5 12.5 0 1 0 -25 0zM1312.5 925 a12.5 12.5 0 1 0 25 0 a12.5 12.5 0 1 0 -25 0zM1212.5 925 a12.5 12.5 0 1 0 25 0 a12.5 12.5 0 1 0 -25 0zM312.5 725 a12.5 12.5 0 1 0 25 0 a12.5 12.5 0 1 0 -25 0z" fill="rgba(50, 20, 20, 1)"></path>
            <path d="M1625 125L1675 175L1725 175L1775 175L1825 175M725 325L775 325L825 325L875 325M425 325L475 275L525 275L575 275L625 275L675 275L725 275L775 225L825 225L875 225M325 325L375 275L425 275L475 225M1425 175L1475 125M1575 125L1625 175L1675 225L1725 225L1775 225L1825 225M675 325L725 375L775 375L825 375L875 375M1525 125L1575 175M1075 275L1125 225L1175 225L1225 175L1275 175L1325 175M-25 325L25 325L75 325L125 325L175 325L225 325L275 325L325 325L375 325L425 325L475 325L525 325L575 325L625 325L675 325L725 325L775 275L825 275L875 275L925 275L975 275L1025 275L1075 275L1125 275L1175 275L1225 225L1275 225L1325 225L1375 175L1425 175L1475 175L1525 125L1575 125L1625 125L1675 125L1725 125" stroke="rgba(50, 20, 20, 1)" stroke-width="8.33"></path>
            <path d="M1712.5 125 a12.5 12.5 0 1 0 25 0 a12.5 12.5 0 1 0 -25 0zM1812.5 175 a12.5 12.5 0 1 0 25 0 a12.5 12.5 0 1 0 -25 0zM862.5 325 a12.5 12.5 0 1 0 25 0 a12.5 12.5 0 1 0 -25 0zM862.5 225 a12.5 12.5 0 1 0 25 0 a12.5 12.5 0 1 0 -25 0zM462.5 225 a12.5 12.5 0 1 0 25 0 a12.5 12.5 0 1 0 -25 0zM1462.5 125 a12.5 12.5 0 1 0 25 0 a12.5 12.5 0 1 0 -25 0zM1812.5 225 a12.5 12.5 0 1 0 25 0 a12.5 12.5 0 1 0 -25 0zM862.5 375 a12.5 12.5 0 1 0 25 0 a12.5 12.5 0 1 0 -25 0zM1562.5 175 a12.5 12.5 0 1 0 25 0 a12.5 12.5 0 1 0 -25 0zM1312.5 175 a12.5 12.5 0 1 0 25 0 a12.5 12.5 0 1 0 -25 0z" fill="rgba(50, 20, 20, 1)"></path>
            <path d="M275 825L325 875L375 925L425 975M25 775L75 825L125 825L175 825L225 875M525 925L575 925M-25 775L25 775L75 775L125 775L175 775L225 825L275 825L325 825L375 875L425 925L475 925L525 925L575 975L625 975L675 975L725 975L775 975L825 975L875 975" stroke="rgba(50, 50, 50, 1)" stroke-width="8.33"></path>
            <path d="M862.5 975 a12.5 12.5 0 1 0 25 0 a12.5 12.5 0 1 0 -25 0zM412.5 975 a12.5 12.5 0 1 0 25 0 a12.5 12.5 0 1 0 -25 0zM212.5 875 a12.5 12.5 0 1 0 25 0 a12.5 12.5 0 1 0 -25 0zM562.5 925 a12.5 12.5 0 1 0 25 0 a12.5 12.5 0 1 0 -25 0z" fill="rgba(50, 50, 50, 1)"></path>
            <path d="M25 275L75 225L125 175M225 225L275 275L325 275M125 225L175 275M-25 275L25 275L75 275L125 225L175 225L225 225L275 225L325 225L375 175L425 175" stroke="rgba(50, 50, 50, 1)" stroke-width="8.33"></path>
            <path d="M412.5 175 a12.5 12.5 0 1 0 25 0 a12.5 12.5 0 1 0 -25 0zM112.5 175 a12.5 12.5 0 1 0 25 0 a12.5 12.5 0 1 0 -25 0zM312.5 275 a12.5 12.5 0 1 0 25 0 a12.5 12.5 0 1 0 -25 0zM162.5 275 a12.5 12.5 0 1 0 25 0 a12.5 12.5 0 1 0 -25 0z" fill="rgba(50, 50, 50, 1)"></path>
        </g>
    </g>
    <defs>
        <mask id="SvgjsMask1098">
            <rect width="1920" height="1080" fill="#ffffff"></rect>
        </mask>
        <mask id="SvgjsMask1099">
            <rect width="1920" height="1080" fill="white"></rect>
            <path d="M1518.75 475 a6.25 6.25 0 1 0 12.5 0 a6.25 6.25 0 1 0 -12.5 0zM1568.75 525 a6.25 6.25 0 1 0 12.5 0 a6.25 6.25 0 1 0 -12.5 0zM568.75 625 a6.25 6.25 0 1 0 12.5 0 a6.25 6.25 0 1 0 -12.5 0zM1168.75 525 a6.25 6.25 0 1 0 12.5 0 a6.25 6.25 0 1 0 -12.5 0zM868.75 525 a6.25 6.25 0 1 0 12.5 0 a6.25 6.25 0 1 0 -12.5 0zM1168.75 475 a6.25 6.25 0 1 0 12.5 0 a6.25 6.25 0 1 0 -12.5 0zM1168.75 425 a6.25 6.25 0 1 0 12.5 0 a6.25 6.25 0 1 0 -12.5 0zM1518.75 425 a6.25 6.25 0 1 0 12.5 0 a6.25 6.25 0 1 0 -12.5 0zM1368.75 425 a6.25 6.25 0 1 0 12.5 0 a6.25 6.25 0 1 0 -12.5 0z" fill="black"></path>
            <path d="M168.75 575 a6.25 6.25 0 1 0 12.5 0 a6.25 6.25 0 1 0 -12.5 0z" fill="black"></path>
            <path d="M768.75 525 a6.25 6.25 0 1 0 12.5 0 a6.25 6.25 0 1 0 -12.5 0zM818.75 475 a6.25 6.25 0 1 0 12.5 0 a6.25 6.25 0 1 0 -12.5 0zM518.75 475 a6.25 6.25 0 1 0 12.5 0 a6.25 6.25 0 1 0 -12.5 0zM418.75 475 a6.25 6.25 0 1 0 12.5 0 a6.25 6.25 0 1 0 -12.5 0zM668.75 475 a6.25 6.25 0 1 0 12.5 0 a6.25 6.25 0 1 0 -12.5 0z" fill="black"></path>
            <path d="M1418.75 675 a6.25 6.25 0 1 0 12.5 0 a6.25 6.25 0 1 0 -12.5 0zM1468.75 725 a6.25 6.25 0 1 0 12.5 0 a6.25 6.25 0 1 0 -12.5 0zM1018.75 725 a6.25 6.25 0 1 0 12.5 0 a6.25 6.25 0 1 0 -12.5 0zM968.75 725 a6.25 6.25 0 1 0 12.5 0 a6.25 6.25 0 1 0 -12.5 0zM718.75 725 a6.25 6.25 0 1 0 12.5 0 a6.25 6.25 0 1 0 -12.5 0zM1568.75 625 a6.25 6.25 0 1 0 12.5 0 a6.25 6.25 0 1 0 -12.5 0zM868.75 675 a6.25 6.25 0 1 0 12.5 0 a6.25 6.25 0 1 0 -12.5 0zM818.75 675 a6.25 6.25 0 1 0 12.5 0 a6.25 6.25 0 1 0 -12.5 0z" fill="black"></path>
            <path d="M668.75 425 a6.25 6.25 0 1 0 12.5 0 a6.25 6.25 0 1 0 -12.5 0zM368.75 475 a6.25 6.25 0 1 0 12.5 0 a6.25 6.25 0 1 0 -12.5 0zM568.75 375 a6.25 6.25 0 1 0 12.5 0 a6.25 6.25 0 1 0 -12.5 0zM618.75 475 a6.25 6.25 0 1 0 12.5 0 a6.25 6.25 0 1 0 -12.5 0z" fill="black"></path>
            <path d="M1518.75 825 a6.25 6.25 0 1 0 12.5 0 a6.25 6.25 0 1 0 -12.5 0zM868.75 825 a6.25 6.25 0 1 0 12.5 0 a6.25 6.25 0 1 0 -12.5 0zM718.75 825 a6.25 6.25 0 1 0 12.5 0 a6.25 6.25 0 1 0 -12.5 0zM1318.75 875 a6.25 6.25 0 1 0 12.5 0 a6.25 6.25 0 1 0 -12.5 0zM1268.75 825 a6.25 6.25 0 1 0 12.5 0 a6.25 6.25 0 1 0 -12.5 0zM468.75 775 a6.25 6.25 0 1 0 12.5 0 a6.25 6.25 0 1 0 -12.5 0zM668.75 725 a6.25 6.25 0 1 0 12.5 0 a6.25 6.25 0 1 0 -12.5 0zM1218.75 725 a6.25 6.25 0 1 0 12.5 0 a6.25 6.25 0 1 0 -12.5 0zM1618.75 775 a6.25 6.25 0 1 0 12.5 0 a6.25 6.25 0 1 0 -12.5 0z" fill="black"></path>
            <path d="M218.75 375 a6.25 6.25 0 1 0 12.5 0 a6.25 6.25 0 1 0 -12.5 0z" fill="black"></path>
            <path d="M1468.75 975 a6.25 6.25 0 1 0 12.5 0 a6.25 6.25 0 1 0 -12.5 0zM1618.75 925 a6.25 6.25 0 1 0 12.5 0 a6.25 6.25 0 1 0 -12.5 0zM518.75 825 a6.25 6.25 0 1 0 12.5 0 a6.25 6.25 0 1 0 -12.5 0zM718.75 875 a6.25 6.25 0 1 0 12.5 0 a6.25 6.25 0 1 0 -12.5 0zM418.75 825 a6.25 6.25 0 1 0 12.5 0 a6.25 6.25 0 1 0 -12.5 0zM1318.75 925 a6.25 6.25 0 1 0 12.5 0 a6.25 6.25 0 1 0 -12.5 0zM1218.75 925 a6.25 6.25 0 1 0 12.5 0 a6.25 6.25 0 1 0 -12.5 0zM318.75 725 a6.25 6.25 0 1 0 12.5 0 a6.25 6.25 0 1 0 -12.5 0z" fill="black"></path>
            <path d="M1718.75 125 a6.25 6.25 0 1 0 12.5 0 a6.25 6.25 0 1 0 -12.5 0zM1818.75 175 a6.25 6.25 0 1 0 12.5 0 a6.25 6.25 0 1 0 -12.5 0zM868.75 325 a6.25 6.25 0 1 0 12.5 0 a6.25 6.25 0 1 0 -12.5 0zM868.75 225 a6.25 6.25 0 1 0 12.5 0 a6.25 6.25 0 1 0 -12.5 0zM468.75 225 a6.25 6.25 0 1 0 12.5 0 a6.25 6.25 0 1 0 -12.5 0zM1468.75 125 a6.25 6.25 0 1 0 12.5 0 a6.25 6.25 0 1 0 -12.5 0zM1818.75 225 a6.25 6.25 0 1 0 12.5 0 a6.25 6.25 0 1 0 -12.5 0zM868.75 375 a6.25 6.25 0 1 0 12.5 0 a6.25 6.25 0 1 0 -12.5 0zM1568.75 175 a6.25 6.25 0 1 0 12.5 0 a6.25 6.25 0 1 0 -12.5 0zM1318.75 175 a6.25 6.25 0 1 0 12.5 0 a6.25 6.25 0 1 0 -12.5 0z" fill="black"></path>
            <path d="M868.75 975 a6.25 6.25 0 1 0 12.5 0 a6.25 6.25 0 1 0 -12.5 0zM418.75 975 a6.25 6.25 0 1 0 12.5 0 a6.25 6.25 0 1 0 -12.5 0zM218.75 875 a6.25 6.25 0 1 0 12.5 0 a6.25 6.25 0 1 0 -12.5 0zM568.75 925 a6.25 6.25 0 1 0 12.5 0 a6.25 6.25 0 1 0 -12.5 0z" fill="black"></path>
            <path d="M418.75 175 a6.25 6.25 0 1 0 12.5 0 a6.25 6.25 0 1 0 -12.5 0zM118.75 175 a6.25 6.25 0 1 0 12.5 0 a6.25 6.25 0 1 0 -12.5 0zM318.75 275 a6.25 6.25 0 1 0 12.5 0 a6.25 6.25 0 1 0 -12.5 0zM168.75 275 a6.25 6.25 0 1 0 12.5 0 a6.25 6.25 0 1 0 -12.5 0z" fill="black"></path>
        </mask>
    </defs>
</svg>